#!OML:ASF F:\VICON\USERDATA\INSTALL\rory3\rory3.ASF
:FULLY-SPECIFIED
:DEGREES
225
root -0.190297 17.1285 5.25471 -9.76213 -79.5491 23.3492
lowerback -6.86177 0.637315 3.86309
upperback -8.97072 0.404683 0.26057
thorax -5.48048 -0.170397 -1.86567
lowerneck -5.78277 15.2945 9.07322
upperneck 25.7594 19.4783 1.45441
head 9.9049 9.94488 1.14844
rclavicle -1.07344e-014 2.14687e-014
rhumerus 8.7647 -16.5633 5.72009
rradius 114.513
rwrist -56.8608
rhand -4.53246 -42.8372
rfingers 7.12502
rthumb 21.2426 -71.6931
lclavicle -1.07344e-014 2.14687e-014
lhumerus 28.2555 29.8483 -10.6088
lradius 36.9724
lwrist 40.1807
lhand -19.5905 -15.579
lfingers 7.12502
lthumb 6.73515 14.2938
rfemur -25.2069 4.1839 -2.08181
rtibia 50.1318
rfoot -4.55125 -15.4558
rtoes -12.9527
lfemur -21.2037 1.06583 -34.4333
ltibia 26.0217
lfoot -18.986 7.19848
ltoes 23.5431
226
root -0.183159 17.1239 5.24878 -9.68049 -79.5058 23.2459
lowerback -6.80858 0.54836 3.78564
upperback -8.97772 0.296519 0.432828
thorax -5.52456 -0.214853 -1.64486
lowerneck -5.74919 15.3373 8.62261
upperneck 26.0484 19.5783 1.58417
head 9.93929 9.96088 1.26626
rclavicle 7.7526e-015 -1.11319e-014
rhumerus 9.03895 -16.3543 5.48148
rradius 114.501
rwrist -56.8476
rhand -3.84432 -42.7276
rfingers 7.12502
rthumb 21.9034 -71.5078
lclavicle 7.7526e-015 -1.11319e-014
lhumerus 27.7122 29.4753 -10.8851
lradius 37.0907
lwrist 40.4619
lhand -19.5241 -15.3747
lfingers 7.12502
lthumb 6.79922 14.4961
rfemur -25.6654 4.27637 -1.8578
rtibia 50.6549
rfoot -4.19971 -15.2431
rtoes -14.5995
lfemur -21.2599 0.873063 -34.3899
ltibia 26.1257
lfoot -19.3471 7.0301
ltoes 26.141
227
root -0.178912 17.1249 5.24186 -9.23006 -79.5148 22.764
lowerback -6.78492 0.547287 3.80971
upperback -8.95464 0.299872 0.53276
thorax -5.51318 -0.21002 -1.55417
lowerneck -6.03781 15.3455 8.02752
upperneck 26.5697 19.5456 2.04015
head 10.0584 9.92851 1.52986
rclavicle 1.51076e-014 2.38542e-015
rhumerus 9.0269 -16.1935 5.35141
rradius 114.351
rwrist -56.8708
rhand -3.75099 -42.9141
rfingers 7.12502
rthumb 21.9931 -71.6838
lclavicle 1.51076e-014 2.38542e-015
lhumerus 27.4776 29.2283 -10.995
lradius 37.3112
lwrist 40.679
lhand -19.6158 -15.3802
lfingers 7.12502
lthumb 6.71071 14.4935
rfemur -26.1231 4.50612 -1.53619
rtibia 51.1792
rfoot -4.42261 -15.1976
rtoes -14.7156
lfemur -21.3367 0.753286 -34.2389
ltibia 26.2519
lfoot -17.6405 8.1198
ltoes 16.6135
228
root -0.175797 17.1283 5.2315 -8.69965 -79.5831 22.1818
lowerback -6.77938 0.638853 3.83625
upperback -8.91935 0.423975 0.559525
thorax -5.47149 -0.146384 -1.53893
lowerneck -6.36269 15.2343 7.48248
upperneck 27.0014 19.295 2.63263
head 10.1373 9.81642 1.80367
rclavicle 1.59028e-015 -3.02153e-014
rhumerus 8.73423 -16.0488 5.30501
rradius 114.184
rwrist -56.7614
rhand -3.65151 -42.6516
rfingers 7.12502
rthumb 22.0886 -71.4099
lclavicle 1.59028e-015 -3.02153e-014
lhumerus 27.6775 29.2408 -10.7064
lradius 37.5362
lwrist 40.5719
lhand -19.7144 -15.8625
lfingers 7.12502
lthumb 6.61553 14.0142
rfemur -26.6058 4.66699 -1.14138
rtibia 51.7094
rfoot -4.38499 -15.1871
rtoes -15.1596
lfemur -21.3775 0.640227 -34.0542
ltibia 26.3652
lfoot -18.329 7.86992
ltoes 19.6221
229
root -0.170037 17.1269 5.22389 -8.78612 -79.6367 22.2064
lowerback -6.75216 0.716925 3.83268
upperback -8.90503 0.531291 0.584102
thorax -5.4655 -0.0908204 -1.50938
lowerneck -6.30107 15.0826 7.15802
upperneck 27.0991 19.085 2.80611
head 10.0988 9.70756 1.87016
rclavicle 1.05356e-014 2.06736e-014
rhumerus 8.51812 -15.7981 5.29688
rradius 114.252
rwrist -56.6657
rhand -3.87342 -42.5978
rfingers 7.12502
rthumb 21.8755 -71.3812
lclavicle 1.05356e-014 2.06736e-014
lhumerus 27.8532 29.2725 -10.3068
lradius 37.7093
lwrist 40.4258
lhand -19.7523 -17.476
lfingers 7.12502
lthumb 6.57893 12.4019
rfemur -27.078 4.76224 -0.880557
rtibia 52.2511
rfoot -3.79 -15.0259
rtoes -16.9976
lfemur -21.3667 0.20015 -33.963
ltibia 26.4571
lfoot -18.9887 8.0134
ltoes 22.6813
230
root -0.162131 17.124 5.21879 -9.47041 -79.6615 22.8075
lowerback -6.63601 0.731177 3.73548
upperback -8.88974 0.562661 0.645114
thorax -5.51294 -0.0668316 -1.3916
lowerneck -6.17862 15.0054 7.17893
upperneck 27.2649 19.0727 2.45652
head 10.1777 9.66068 1.7535
rclavicle -2.82274e-014 -9.54166e-015
rhumerus 8.48248 -15.5045 5.18979
rradius 114.342
rwrist -56.6111
rhand -4.41687 -42.7374
rfingers 7.12502
rthumb 21.3536 -71.5808
lclavicle -2.82274e-014 -9.54166e-015
lhumerus 27.6323 28.9806 -10.3679
lradius 37.8676
lwrist 40.7186
lhand -19.9845 -18.704
lfingers 7.12502
lthumb 6.35481 11.1807
rfemur -27.5264 4.89553 -0.8113
rtibia 52.7948
rfoot -3.56429 -14.7199
rtoes -17.4424
lfemur -21.3508 -0.283789 -33.9822
ltibia 26.5822
lfoot -18.7903 8.67866
ltoes 21.6982
231
root -0.156223 17.1232 5.20877 -9.81445 -79.6913 23.0804
lowerback -6.53897 0.723728 3.68052
upperback -8.84661 0.56224 0.662511
thorax -5.52117 -0.0610492 -1.34357
lowerneck -6.20609 15.0039 7.2191
upperneck 27.5029 19.1169 2.2608
head 10.298 9.65504 1.7081
rclavicle -2.60408e-014 -7.15625e-015
rhumerus 8.40427 -15.3259 4.86037
rradius 114.262
rwrist -56.6671
rhand -4.71503 -42.9507
rfingers 7.12502
rthumb 21.0672 -71.8263
lclavicle -2.60408e-014 -7.15625e-015
lhumerus 27.4198 28.7548 -10.6012
lradius 38.0854
lwrist 40.9849
lhand -20.1225 -17.923
lfingers 7.12502
lthumb 6.22153 11.9656
rfemur -27.9795 5.237 -0.689238
rtibia 53.3175
rfoot -4.04752 -14.6148
rtoes -15.9261
lfemur -21.3759 -0.43138 -33.9714
ltibia 26.7256
lfoot -18.6447 9.02799
ltoes 20.9847
232
root -0.152694 17.1222 5.19731 -9.79675 -79.7368 23.0567
lowerback -6.5567 0.729512 3.68205
upperback -8.79087 0.569346 0.614531
thorax -5.45041 -0.0558823 -1.3945
lowerneck -6.36211 15.0074 7.34926
upperneck 27.8419 19.106 2.21218
head 10.4735 9.64411 1.70983
rclavicle 2.32578e-014 6.36111e-015
rhumerus 8.24997 -15.2356 4.44419
rradius 114.12
rwrist -56.8214
rhand -3.94245 -42.5836
rfingers 7.12502
rthumb 21.8092 -71.3747
lclavicle 2.32578e-014 6.36111e-015
lhumerus 27.4118 28.7497 -10.7445
lradius 38.3724
lwrist 41.0689
lhand -20.1025 -16.2132
lfingers 7.12502
lthumb 6.24086 13.6749
rfemur -28.4635 5.61923 -0.465997
rtibia 53.8137
rfoot -4.45182 -14.6107
rtoes -14.9692
lfemur -21.4629 -0.362368 -33.9315
ltibia 26.8379
lfoot -18.684 8.99673
ltoes 21.2002
233
root -0.149692 17.1237 5.19028 -9.89158 -79.8141 23.129
lowerback -6.5574 0.719994 3.61623
upperback -8.72688 0.560988 0.630549
thorax -5.38172 -0.0520797 -1.34153
lowerneck -6.544 15.0215 7.65458
upperneck 28.2819 19.1452 1.93734
head 10.7412 9.64288 1.63265
rclavicle -1.66979e-014 2.22639e-014
rhumerus 8.23555 -15.1145 4.05903
rradius 113.929
rwrist -56.8561
rhand -3.35571 -42.2079
rfingers 7.12502
rthumb 22.3725 -70.9324
lclavicle -1.66979e-014 2.22639e-014
lhumerus 27.2876 28.7185 -10.8698
lradius 38.6119
lwrist 41.1773
lhand -20.064 -15.2161
lfingers 7.12502
lthumb 6.278 14.6709
rfemur -28.9414 5.87851 -0.2367
rtibia 54.2809
rfoot -4.28813 -14.4754
rtoes -15.4411
lfemur -21.5105 -0.519918 -33.8859
ltibia 26.9406
lfoot -18.7449 9.21447
ltoes 21.0241
234
root -0.144367 17.1257 5.18678 -10.3561 -79.8115 23.5216
lowerback -6.4824 0.643664 3.5157
upperback -8.65241 0.469448 0.646927
thorax -5.34843 -0.0875961 -1.27078
lowerneck -6.63585 15.069 8.12032
upperneck 28.6132 19.2616 1.4856
head 10.9962 9.67497 1.47406
rclavicle 3.3197e-014 -1.74931e-014
rhumerus 8.29221 -14.974 3.56866
rradius 113.758
rwrist -56.7325
rhand -3.61316 -42.4032
rfingers 7.12502
rthumb 22.1254 -71.1573
lclavicle 3.3197e-014 -1.74931e-014
lhumerus 27.0577 28.7745 -10.8904
lradius 38.8306
lwrist 41.096
lhand -20.066 -15.7306
lfingers 7.12502
lthumb 6.27605 14.1564
rfemur -29.3621 6.06975 -0.160833
rtibia 54.7528
rfoot -4.53852 -14.1611
rtoes -14.7094
lfemur -21.4829 -0.740519 -33.9286
ltibia 27.0327
lfoot -18.774 9.49186
ltoes 20.7319
235
root -0.136242 17.1227 5.183 -10.9562 -79.7271 24.0765
lowerback -6.43085 0.579142 3.46193
upperback -8.57022 0.388823 0.570784
thorax -5.29255 -0.122739 -1.32217
lowerneck -6.71571 15.0432 8.5974
upperneck 28.8422 19.2715 1.02693
head 11.2109 9.66105 1.28882
rclavicle -9.14409e-015 -1.19271e-014
rhumerus 8.22008 -14.8584 3.11982
rradius 113.694
rwrist -56.7565
rhand -3.44875 -42.3893
rfingers 7.12502
rthumb 22.2832 -71.1245
lclavicle -9.14409e-015 -1.19271e-014
lhumerus 26.9426 28.8459 -10.9227
lradius 39.0116
lwrist 41.046
lhand -20.089 -17.0342
lfingers 7.12502
lthumb 6.25386 12.8535
rfemur -29.7739 6.18135 -0.178145
rtibia 55.2496
rfoot -5.24132 -13.8467
rtoes -12.7398
lfemur -21.4822 -0.78977 -34.0392
ltibia 27.0986
lfoot -18.8255 9.37925
ltoes 21.5207
236
root -0.129263 17.1195 5.1738 -11.2431 -79.7289 24.339
lowerback -6.41198 0.547918 3.40705
upperback -8.47428 0.351721 0.516172
thorax -5.20166 -0.134631 -1.34967
lowerneck -6.77589 14.936 8.72685
upperneck 28.9185 19.159 0.778254
head 11.2913 9.58751 1.18443
rclavicle -2.56432e-014 -6.36111e-015
rhumerus 8.14853 -14.6806 2.75482
rradius 113.707
rwrist -56.9053
rhand -3.95722 -42.9723
rfingers 7.12502
rthumb 21.795 -71.7651
lclavicle -2.56432e-014 -6.36111e-015
lhumerus 26.8589 28.9241 -10.9073
lradius 39.1451
lwrist 40.9132
lhand -20.0195 -17.4623
lfingers 7.12502
lthumb 6.32099 12.4234
rfemur -30.2424 6.35245 -0.0528619
rtibia 55.7578
rfoot -5.71029 -13.7168
rtoes -11.3496
lfemur -21.5263 -0.745923 -34.067
ltibia 27.1796
lfoot -18.8566 9.32943
ltoes 22.0355
237
root -0.122845 17.1125 5.16415 -11.347 -79.7654 24.446
lowerback -6.42209 0.518783 3.39221
upperback -8.3906 0.314972 0.493335
thorax -5.10801 -0.148382 -1.36628
lowerneck -6.80872 14.8875 8.68171
upperneck 28.9735 19.1303 0.644559
head 11.3271 9.55018 1.14671
rclavicle -6.85807e-015 1.11319e-014
rhumerus 8.10562 -14.4332 2.3647
rradius 113.738
rwrist -56.9
rhand -4.51659 -43.5426
rfingers 7.12502
rthumb 21.2578 -72.3969
lclavicle -6.85807e-015 1.11319e-014
lhumerus 26.7703 29.102 -10.6811
lradius 39.3
lwrist 40.4351
lhand -20.0214 -17.1049
lfingers 7.12502
lthumb 6.31912 12.7809
rfemur -30.7869 6.59445 0.140358
rtibia 56.3008
rfoot -5.6917 -13.5306
rtoes -11.465
lfemur -21.6605 -0.420197 -34.1827
ltibia 27.2595
lfoot -18.3312 9.99095
ltoes 18.5653
238
root -0.11701 17.1036 5.15662 -11.3929 -79.7952 24.4852
lowerback -6.43313 0.521033 3.44585
upperback -8.33539 0.317911 0.499879
thorax -5.04278 -0.14677 -1.38967
lowerneck -6.76458 14.8098 8.78594
upperneck 29.0222 19.1222 0.234948
head 11.3967 9.5053 0.994728
rclavicle 2.87244e-014 1.35174e-014
rhumerus 8.03282 -14.1735 2.05731
rradius 113.731
rwrist -56.7585
rhand -4.18084 -43.3589
rfingers 7.12502
rthumb 21.5803 -72.1765
lclavicle 2.87244e-014 1.35174e-014
lhumerus 26.7024 29.1526 -10.5245
lradius 39.4419
lwrist 40.1752
lhand -20.1962 -17.0382
lfingers 7.12502
lthumb 6.15036 12.8525
rfemur -31.3317 6.89158 0.298858
rtibia 56.8852
rfoot -5.49673 -13.082
rtoes -12.473
lfemur -21.7882 0.0871175 -34.3939
ltibia 27.2504
lfoot -17.2189 11.1354
ltoes 11.708
239
root -0.111429 17.09 5.14748 -11.0712 -79.8328 24.0558
lowerback -6.35731 0.705087 3.4862
upperback -8.26656 0.566817 0.391191
thorax -4.99825 -0.0237271 -1.52099
lowerneck -6.85623 14.6133 9.26118
upperneck 29.1896 18.8586 -0.125907
head 11.5657 9.38222 0.793854
rclavicle 5.66536e-015 -1.59028e-015
rhumerus 7.29176 -13.8807 2.0695
rradius 113.722
rwrist -56.4628
rhand -5.39533 -44.5399
rfingers 7.12502
rthumb 20.4135 -73.4869
lclavicle 5.66536e-015 -1.59028e-015
lhumerus 27.4305 29.2926 -9.9331
lradius 39.5413
lwrist 40.0824
lhand -20.4409 -17.0246
lfingers 7.12502
lthumb 5.9142 12.8728
rfemur -31.8051 7.08167 0.549882
rtibia 57.4713
rfoot -5.41962 -12.6238
rtoes -13.2964
lfemur -21.6353 0.458309 -34.4694
ltibia 27.1903
lfoot -16.5616 11.979
ltoes 7.15306
